<?xml version="1.0" encoding="UTF-8"?>
<svg xmlns="http://www.w3.org/2000/svg" version="1.1" width="250" height="250" viewBox="0 0 250 250"><rect x="0" y="0" width="250" height="250" fill="#ffffff"/><g transform="scale(8.621)"><g transform="translate(0,0)"><path fill-rule="evenodd" d="M9 0L9 1L10 1L10 2L8 2L8 3L9 3L9 4L10 4L10 5L9 5L9 6L8 6L8 8L4 8L4 9L3 9L3 8L0 8L0 11L2 11L2 14L1 14L1 15L0 15L0 17L1 17L1 18L0 18L0 19L1 19L1 20L0 20L0 21L1 21L1 20L3 20L3 21L5 21L5 20L4 20L4 18L6 18L6 19L7 19L7 20L6 20L6 21L8 21L8 25L9 25L9 23L10 23L10 24L11 24L11 25L10 25L10 27L9 27L9 26L8 26L8 29L9 29L9 28L12 28L12 29L13 29L13 28L12 28L12 27L11 27L11 26L12 26L12 24L14 24L14 26L13 26L13 27L14 27L14 26L15 26L15 25L16 25L16 26L17 26L17 25L18 25L18 24L20 24L20 25L19 25L19 26L21 26L21 27L20 27L20 29L21 29L21 27L22 27L22 26L21 26L21 25L23 25L23 27L24 27L24 28L22 28L22 29L24 29L24 28L25 28L25 23L26 23L26 22L27 22L27 24L28 24L28 25L26 25L26 27L27 27L27 29L29 29L29 28L28 28L28 27L29 27L29 21L26 21L26 22L25 22L25 20L26 20L26 18L27 18L27 20L28 20L28 19L29 19L29 16L28 16L28 15L29 15L29 12L28 12L28 11L29 11L29 9L28 9L28 10L26 10L26 9L27 9L27 8L26 8L26 9L25 9L25 10L24 10L24 12L25 12L25 14L23 14L23 12L22 12L22 11L21 11L21 10L23 10L23 8L21 8L21 10L20 10L20 11L19 11L19 12L20 12L20 11L21 11L21 14L20 14L20 15L19 15L19 14L18 14L18 15L16 15L16 16L15 16L15 14L14 14L14 13L13 13L13 12L12 12L12 11L11 11L11 12L12 12L12 13L11 13L11 14L10 14L10 15L12 15L12 16L9 16L9 12L5 12L5 11L7 11L7 10L5 10L5 11L4 11L4 9L9 9L9 8L10 8L10 10L8 10L8 11L10 11L10 10L12 10L12 8L14 8L14 10L13 10L13 11L14 11L14 10L16 10L16 9L17 9L17 10L19 10L19 9L18 9L18 7L19 7L19 8L20 8L20 7L21 7L21 6L20 6L20 5L21 5L21 4L19 4L19 3L20 3L20 2L21 2L21 1L20 1L20 0L18 0L18 1L17 1L17 0L16 0L16 1L14 1L14 0L12 0L12 1L10 1L10 0ZM13 1L13 2L14 2L14 1ZM18 1L18 2L17 2L17 3L16 3L16 2L15 2L15 3L16 3L16 4L15 4L15 5L14 5L14 4L13 4L13 3L12 3L12 2L11 2L11 3L12 3L12 4L11 4L11 5L10 5L10 6L9 6L9 7L10 7L10 6L11 6L11 8L12 8L12 6L13 6L13 7L14 7L14 6L15 6L15 8L16 8L16 6L17 6L17 7L18 7L18 6L19 6L19 7L20 7L20 6L19 6L19 4L18 4L18 3L19 3L19 1ZM13 5L13 6L14 6L14 5ZM2 9L2 10L3 10L3 9ZM25 10L25 11L26 11L26 13L27 13L27 14L25 14L25 15L24 15L24 16L23 16L23 18L24 18L24 20L25 20L25 18L26 18L26 17L27 17L27 18L28 18L28 17L27 17L27 14L28 14L28 13L27 13L27 11L26 11L26 10ZM3 11L3 13L5 13L5 12L4 12L4 11ZM15 11L15 12L16 12L16 11ZM17 11L17 13L18 13L18 11ZM6 13L6 14L8 14L8 13ZM3 14L3 15L1 15L1 16L3 16L3 17L2 17L2 18L1 18L1 19L2 19L2 18L3 18L3 17L4 17L4 14ZM13 14L13 15L14 15L14 14ZM22 14L22 15L20 15L20 16L18 16L18 17L15 17L15 18L14 18L14 16L12 16L12 18L11 18L11 17L10 17L10 18L9 18L9 17L6 17L6 16L8 16L8 15L5 15L5 17L6 17L6 18L7 18L7 19L8 19L8 21L9 21L9 22L10 22L10 23L11 23L11 24L12 24L12 23L11 23L11 21L12 21L12 20L13 20L13 21L14 21L14 22L13 22L13 23L14 23L14 22L15 22L15 23L16 23L16 24L17 24L17 23L19 23L19 22L20 22L20 21L19 21L19 20L18 20L18 22L16 22L16 20L15 20L15 19L16 19L16 18L19 18L19 19L20 19L20 20L22 20L22 17L21 17L21 16L22 16L22 15L23 15L23 14ZM25 15L25 16L26 16L26 15ZM8 18L8 19L9 19L9 20L10 20L10 19L9 19L9 18ZM13 18L13 19L14 19L14 18ZM20 18L20 19L21 19L21 18ZM11 19L11 20L12 20L12 19ZM21 21L21 24L24 24L24 21ZM22 22L22 23L23 23L23 22ZM27 26L27 27L28 27L28 26ZM16 27L16 28L15 28L15 29L19 29L19 28L18 28L18 27ZM0 0L0 7L7 7L7 0ZM1 1L1 6L6 6L6 1ZM2 2L2 5L5 5L5 2ZM22 0L22 7L29 7L29 0ZM23 1L23 6L28 6L28 1ZM24 2L24 5L27 5L27 2ZM0 22L0 29L7 29L7 22ZM1 23L1 28L6 28L6 23ZM2 24L2 27L5 27L5 24Z" fill="#000000"/></g></g></svg>
